<?xml version="1.0" standalone="no"?><!DOCTYPE svg PUBLIC "-//W3C//DTD SVG 1.1//EN" "http://www.w3.org/Graphics/SVG/1.1/DTD/svg11.dtd"><svg t="1508312770451" class="icon" style="" viewBox="0 0 1024 1024" version="1.1" xmlns="http://www.w3.org/2000/svg" p-id="5968" xmlns:xlink="http://www.w3.org/1999/xlink" width="200" height="200"><defs><style type="text/css"></style></defs><path d="M204.8 0h614.4a204.8 204.8 0 0 1 204.8 204.8v614.4a204.8 204.8 0 0 1-204.8 204.8H204.8a204.8 204.8 0 0 1-204.8-204.8V204.8a204.8 204.8 0 0 1 204.8-204.8z" fill="#00d7ff" p-id="5969" class="selected"></path><path d="M273.066667 669.457067L399.086933 341.333333h46.762667l134.280533 328.123734h-49.425066l-38.2976-99.362134h-137.216l-36.010667 99.362134H273.066667z m94.685866-134.724267h111.240534l-34.235734-90.897067a871.389867 871.389867 0 0 1-23.278933-68.027733 425.472 425.472 0 0 1-17.681067 62.6688l-36.0448 96.256z m241.0496 134.724267V341.333333h40.277334v328.123734h-40.277334z m101.853867 0V341.333333H750.933333v328.123734h-40.277333z" fill="#FFFFFF" p-id="5970"></path></svg>