<?xml version="1.0" standalone="no"?><!DOCTYPE svg PUBLIC "-//W3C//DTD SVG 1.1//EN" "http://www.w3.org/Graphics/SVG/1.1/DTD/svg11.dtd"><svg t="1508314210081" class="icon" style="" viewBox="0 0 1024 1024" version="1.1" xmlns="http://www.w3.org/2000/svg" p-id="26727" xmlns:xlink="http://www.w3.org/1999/xlink" width="200" height="200"><defs><style type="text/css"></style></defs><path d="M539.338594 921.845593c-2.445697 0-4.891394 0-7.337091 0-124.883016-5.095031-217.274078-51.657417-283.014206-117.398569-65.640868-65.640868-115.279306-154.380781-122.63891-276.723956 0-10.132758 0-20.265515 0-30.398273 0.816597-0.231267 1.218755-0.876972 1.047863-2.095727 4.5711-93.993556 35.105472-166.286925 78.615342-225.362274 42.881561-58.22396 101.151569-105.331766 169.808114-134.169501 74.065731-31.10947 173.692577-41.201295 258.90516-19.915545 78.929496 19.716001 142.371284 58.684447 192.869297 111.109342 49.879938 51.783283 88.066579 115.37652 106.915841 197.061774 20.205141 87.556973 5.263877 188.071024-27.25366 257.857297C843.884143 817.813423 727.043275 910.546269 539.338594 921.845593zM747.930959 687.048455c7.578591 5.84716 32.005884 9.47682 31.445113 22.012296-0.35304 7.887628-6.801903 8.412583-12.578455 11.530591-16.407659 8.858744-34.303202 11.133549-52.410569 22.012296-16.72386 10.048847-24.359755 25.639909-44.023568 30.398273-50.248327 12.160947-33.363809-43.909981-33.541864-76.518591-0.067538-12.520126-5.116521-26.119839-6.289227-36.6875-2.095727-18.876892 2.504025-34.995979 11.530591-34.59075 11.394492 0.513699 12.930471 24.693353 24.110069 30.398273 28.817268 14.706927 43.665412-13.299884 55.554159-25.156909 4.839205-4.826926 10.153224-7.279786 12.578455-11.530591 14.820514-25.975553-2.508118-72.725203-11.530591-95.386273-8.470912-21.277563-18.660975-39.599824-31.446137-55.555182-26.213982-32.71401-51.141672-66.754223-55.554159-119.494296-1.002838-11.993125 0.880042-21.445385 0-33.542887-3.706408-50.927801-37.028261-88.225191-85.952432-92.24166-40.736715-3.345181-67.002886 11.128433-79.663205 33.541864-14.538082 25.738146-10.142991 66.657009-8.385978 102.723364 0.837063 17.175137 5.211688 36.510469 3.144614 50.312795-2.089587 13.949682-16.750466 30.435112-25.156909 41.927841-9.162665 12.526266-21.048343 26.437063-28.301523 39.831091-7.174385 13.250765-13.510685 31.223056-19.915545 48.218092-10.621897 28.18282-27.449111 42.20925-20.963409 76.517568 29.550977-11.46203 49.613879 23.47869 64.988 46.120318 21.074949 31.037838 40.850302 51.869241 41.927841 94.337387-16.538642 35.086029-63.59733 9.762322-97.483024 2.09675-15.704649-3.552912-60.934692-7.741296-64.988-18.867682-3.52119-9.666131 9.196434-21.479154 9.433841-32.494 0.347923-16.164112-12.816885-22.277331-9.433841-39.832114 19.733397-5.438862 44.658017-0.936323 51.361682-19.915545 1.821481-5.158476 1.238198-13.666227 0-22.013319-1.612727 32.663869-35.551633 26.034904-57.650909 36.6875-4.6765 17.677579 5.899348 30.885366 4.1935 46.120318-1.343598 12.000288-11.552081 21.889499-8.385978 36.6875 14.915681 18.35603 48.950777 16.676788 73.373978 23.060159 20.035272 5.237271 52.681744 23.407059 75.469705 20.964432 14.9648-1.604541 22.067554-12.5058 34.59075-18.867682 22.754191-11.560267 59.141864-10.067266 91.193796-9.433841 9.725483 0.192381 23.39171-0.80841 31.445113 2.09675 11.581756 4.176104 11.850885 17.468825 22.012296 23.060159 8.214062 4.519934 33.090586 6.650454 45.073478 2.09675 9.040892-3.436255 17.144438-13.821769 26.203749-20.964432 8.794276-6.931862 18.12988-14.334445 28.301523-19.915545 15.119319-8.294903 56.015669-19.371148 54.506296-40.878954-0.918927-13.095223-17.036991-15.871447-28.3005-25.156909-13.1996-10.881816-15.157181-23.01104-17.819819-44.024591C729.176864 651.850885 734.072351 676.357997 747.930959 687.048455z" p-id="26728"></path><path d="M592.797026 265.673294c-7.46705 1.966791-14.430635 4.43807-19.916569 8.385978 0.710173-3.72585 2.684127-14.607667 6.289227-18.867682C584.441748 257.955534 589.463101 260.971212 592.797026 265.673294z" p-id="26729"></path><path d="M566.592253 329.613431c5.440908-2.964512 9.742879 4.209873 9.433841 10.481704C571.654539 337.827493 572.56528 330.279602 566.592253 329.613431z" p-id="26730"></path><path d="M493.218276 330.661294c6.430443-1.599424 8.791206 11.079314 4.192477 13.626318C499.025527 336.733581 495.486941 334.331886 493.218276 330.661294z" p-id="26731"></path><path d="M612.712571 392.504681c5.080705 7.777112 25.117 8.447376 17.818795 22.012296C619.058081 413.334037 610.563633 403.844937 612.712571 392.504681z" p-id="26732"></path><path d="M427.181389 493.132318c4.501515 3.737107-2.273782 13.590502-6.289227 15.723068C419.459536 504.251541 427.037103 499.645649 427.181389 493.132318z" p-id="26733"></path><path d="M680.845185 592.711068c5.754039 3.680825 13.720462 5.146197 16.771955 11.530591-14.72637-10.258624-51.692209-9.486029-51.361682 13.626318-33.270688 2.002606-22.389895 39.15878-19.915545 71.277227 1.949394 25.305288-5.589287 49.351913-10.481704 63.940137-9.076708-4.870928-2.318807-15.343422 0-23.060159 3.945861-13.143319 8.603941-27.780661 1.047863-39.832114-8.927305 2.175545-10.116385 10.760043-15.723068 16.771955-16.535572 17.726698-67.019259 31.049095-94.337387 16.770932-5.538122-2.893904-11.813023-13.677483-19.915545-5.240341 5.887069 9.958796 19.826518 32.860343 5.241364 38.782204 1.471511-24.880617-9.964936-36.854299-19.915545-50.312795 12.240764-3.630683 22.144302-12.461798 17.819819-27.25366-3.105728-10.620874-26.584419-25.736099-39.832114-36.6875-14.759116-12.200855-31.819643-24.672886-40.879978-34.59075-9.422585-10.313883-12.654179-36.433721-5.241364-56.602023-1.570772 20.071088-1.226942 48.936451 16.770932 55.554159 10.253508-4.801343 5.090938-27.328361 6.289227-41.928864 2.708686-32.992349 19.222769-56.619419 34.59075-76.517568-12.26737-31.454323 16.803677-46.05278 17.819819-74.422864 3.067866-2.193964 5.654779 3.208059 7.337091 5.241364 5.663988 6.846928 13.950706 23.94941 25.156909 25.155886 11.663621 1.256618 26.491298-11.759811 36.686477-18.867682 12.173226-8.485238 24.277891-13.865771 32.495023-22.012296-7.395419-9.773578-17.498501 1.630124-26.204773 6.289227-11.56436 6.18792-32.998489 17.105552-49.265955 9.433841-4.108566-1.938138-9.958796-8.271367-8.385978-10.482728 21.147604 6.506168 38.355486-2.817156 56.603046-10.481704 10.75288-4.516865 33.049654-6.478539 27.25366-19.915545-16.680881 9.067498-58.542207 33.286037-84.904569 20.964432-2.255362-1.054003-19.468362-16.341144-19.915545-19.915545-1.572818-12.561058 27.580094-20.993085 30.398273-31.445113 7.178479-31.494232-33.504001-33.249199-25.156909-3.144614 2.058888 7.423048 7.619523 8.099452 8.385978 13.626318-10.111268 5.163593-13.69181-12.562082-13.626318-23.060159 0.084934-13.713299 6.210433-29.533581 17.819819-29.35041 15.837678 0.25071 18.471663 21.436175 18.867682 39.832114 7.922421 2.210337 20.523388-0.257873 26.204773 4.192477-0.977255-15.156158-2.20522-27.879922 4.1935-36.6875 20.547947-28.284127 63.902274 5.431698 47.169205 44.024591-2.598169 0.913811-8.127082 2.046608-10.481704 0 6.32709-17.096342-1.697662-42.5408-20.964432-35.638614-8.863861 3.175313-12.280673 16.980709-9.433841 30.398273 10.816325 9.798137 28.914482 12.314442 41.928864 19.915545 1.623984 14.492033-6.870464 25.619443-2.09675 39.832114 2.514258 7.487516 9.794044 13.532174 14.675205 22.012296 7.851813 13.641668 9.505472 31.479906 14.674182 42.976728 5.619986 12.498637 15.084527 20.721909 19.916569 35.638614 6.168477 19.044714 6.20941 39.402326 8.384954 66.035864 1.110285 13.587433 8.618268 25.545765 24.109046 15.723068 2.198057-1.39374 5.24955-4.249782 6.289227-6.289227 19.192069-37.6535-18.221977-97.303945-29.35041-114.252932C675.401207 496.081481 694.568717 546.740153 680.845185 592.711068zM502.652117 354.769317c0 1.747803 0 3.494584 0 5.241364 4.838182-1.102099 6.421234-5.457281 9.433841-8.385978C507.976368 351.709637 505.548067 353.472791 502.652117 354.769317zM529.904753 352.67359c2.553144 2.378159 8.378814 5.757109 11.530591 4.192477C542.667402 350.146029 533.836287 351.141704 529.904753 352.67359z" p-id="26734"></path></svg>