<?xml version="1.0" standalone="no"?><!DOCTYPE svg PUBLIC "-//W3C//DTD SVG 1.1//EN" "http://www.w3.org/Graphics/SVG/1.1/DTD/svg11.dtd"><svg t="1508314090728" class="icon" style="" viewBox="0 0 1024 1024" version="1.1" xmlns="http://www.w3.org/2000/svg" p-id="25885" xmlns:xlink="http://www.w3.org/1999/xlink" width="200" height="200"><defs><style type="text/css"></style></defs><path d="M936.544 270.592a10.88 10.88 0 0 0-4.928-8.48L515.2 23.648a10.944 10.944 0 0 0-9.824 0.032L90.656 265.056a10.848 10.848 0 0 0-4.864 8.512l1.664 479.872c0 3.104 2.24 6.944 4.928 8.48L508.8 1000.384a10.944 10.944 0 0 0 9.824-0.032l414.72-241.376a10.848 10.848 0 0 0 4.864-8.512l-1.664-479.84z m-122.176 390.656c0 3.104-0.672 8.128-1.472 11.136l-7.36 13.088c-2.144 2.272-6.08 5.44-8.768 7.04l-259.2 157.248a99.328 99.328 0 0 1-10.048 5.184s-3.744 1.6-8.544 1.6c-3.936 0-6.208-0.8-6.208-0.8a114.496 114.496 0 0 1-10.464-4.352l-111.776-54.176a5.664 5.664 0 0 1-2.624-7.584l18.176-37.472a5.664 5.664 0 0 1 7.584-2.624l98.816 47.904a11.52 11.52 0 0 0 9.952-0.48l234.112-142.016a11.264 11.264 0 0 0 4.832-8.608v-268.768a11.008 11.008 0 0 0-4.896-8.544l-232.768-137.504a10.688 10.688 0 0 0-9.792-0.032l-238.4 137.76a10.912 10.912 0 0 0-4.896 8.512v274.048c0 3.104 1.888 7.392 4.224 9.472 0 0 47.712 42.976 70.336 42.08 20.608-0.8 39.456-19.072 39.456-19.072a15.392 15.392 0 0 0 4.064-9.6v-298.144c0-3.104 2.56-5.664 5.664-5.664h41.664c3.104 0 5.664 2.56 5.664 5.664v307.424c0 3.104-0.384 8.192-0.832 11.264 0 0-0.736 4.832-3.68 9.216-1.376 2.016-34.112 49.696-89.92 51.872-42.432 1.696-84.128-22.848-123.872-72.864-3.712-4.672-4.8-10.912-4.8-10.912a82.72 82.72 0 0 1-0.96-11.264v-298.816c0-3.104 0.672-8.128 1.504-11.136l7.744-13.44a48.96 48.96 0 0 1 8.896-6.88l265.024-153.152c2.688-1.568 7.392-3.456 10.4-4.256l15.776 0.064c3.008 0.8 7.68 2.752 10.368 4.352l259.136 153.056c2.688 1.6 6.656 4.704 8.832 6.944l7.584 13.28c0.832 3.008 1.504 8.032 1.504 11.136v298.816z m-166.304-92.256c-6.752-4.384-23.52-9.92-50.304-16.672-36.096-9.12-61.12-16.992-75.04-23.648s-24.512-15.872-31.712-27.616a73.088 73.088 0 0 1-10.784-38.976c0-12.928 2.976-24.928 8.896-35.968s13.984-20.192 24.192-27.488c7.648-5.632 18.08-10.432 31.296-14.368s27.392-5.888 42.528-5.888c22.784 0 42.784 3.296 60 9.856s29.952 15.456 38.144 26.656 15.52 39.488 15.52 39.488a4.928 4.928 0 0 1-4.192 6.24l-36.896 5.024a7.04 7.04 0 0 1-7.36-4.64s-6.784-21.216-17.28-29.6-25.28-12.576-44.448-12.576c-22.592 0-38.72 3.744-48.384 11.2s-14.496 16.224-14.496 26.24a27.2 27.2 0 0 0 6.016 17.216c4 5.28 10.304 9.664 18.88 13.12 4.928 1.824 19.424 6.016 43.488 12.576 34.816 9.28 59.104 16.896 72.864 22.816s24.576 14.528 32.416 25.824c7.84 11.296 11.744 25.344 11.744 42.112 0 16.416-4.8 31.84-14.368 46.336s-23.392 25.696-41.408 33.632-38.464 11.904-61.248 11.904c-37.728 0-66.496-7.84-86.272-23.52s-36.064-64.352-36.064-64.352a4.672 4.672 0 0 1 3.808-6.272l37.472-5.888a6.72 6.72 0 0 1 7.232 4.544s8.704 29.024 21.216 39.424 29.952 15.584 52.352 15.584c22.592 0 39.36-4.608 50.304-13.792s16.416-20 16.416-32.384c0-11.104-4.832-19.872-14.496-26.24z" p-id="25886" class="selected" fill="#36ab60"></path></svg>