<?xml version="1.0" standalone="no"?><!DOCTYPE svg PUBLIC "-//W3C//DTD SVG 1.1//EN" "http://www.w3.org/Graphics/SVG/1.1/DTD/svg11.dtd"><svg t="1508313557045" class="icon" style="" viewBox="0 0 1024 1024" version="1.1" xmlns="http://www.w3.org/2000/svg" p-id="21417" xmlns:xlink="http://www.w3.org/1999/xlink" width="200" height="200"><defs><style type="text/css"></style></defs><path d="M512.01536 8.22784C233.8048 8.22784 8.23808 233.78944 8.23808 512c0 278.20544 225.56672 503.76704 503.77728 503.76704 278.20032 0 503.75168-225.5616 503.75168-503.76704 0-278.21056-225.55136-503.77216-503.75168-503.77216z m12.19584 763.90912c-12.20608 11.648-27.18208 17.19296-44.928 17.19296-17.75104 0-32.72704-5.54496-44.928-17.19296-12.20096-11.648-18.304-24.96-18.304-40.48896 0-16.08704 6.10304-29.39904 18.304-41.04192 12.20608-11.648 27.17696-17.19808 44.928-17.19808 17.19296 0 32.72704 6.10304 44.928 17.19808 12.75904 11.08992 18.85696 24.95488 18.85696 41.04192-0.00512 15.52896-6.65088 28.83584-18.85696 40.48896z m119.79776-328.91392c-12.20096 22.18496-32.72704 45.48096-62.12096 69.32992-24.40192 19.41504-40.48896 34.93888-47.14496 46.03392s-9.97888 24.96-9.97888 40.49408v23.84896H433.23904v-32.72704c0-24.96 4.44416-45.48608 13.31712-63.23712 8.87296-17.74592 24.40704-34.944 45.48096-52.69504 24.41216-19.968 40.49408-36.60288 48.81408-49.36704 8.32-12.75904 12.20096-26.624 12.20096-41.6 0-17.19296-5.54496-30.50496-17.74592-41.04192-12.20608-10.54208-29.40416-15.53408-51.58912-15.53408-43.82208 0-83.75808 16.64-121.472 48.81408v-106.496c41.6-22.74304 85.41696-34.39104 132.56192-34.39104 53.25312 0 94.29504 12.20096 123.69408 36.608 29.39392 23.84896 43.81696 57.12896 43.25888 98.72896 0 26.0864-5.55008 51.04128-17.75104 73.23136z" p-id="21418" class="selected" fill="#f4ea29"></path></svg>